<svg width="300" height="120" viewBox="0 0 300 120" fill="none" xmlns="http://www.w3.org/2000/svg">
<g clip-path="url(#clip0_4452_248)">
<path d="M91.8 18.72C91.9965 18.4946 92.1401 18.2281 92.22 17.94C92.3883 17.3147 92.3096 16.6487 92 16.08C91.8736 15.852 91.7153 15.6432 91.53 15.46C91.3342 15.2466 91.0962 15.0762 90.8311 14.9597C90.566 14.8431 90.2796 14.783 89.99 14.783C89.7004 14.783 89.414 14.8431 89.1489 14.9597C88.8838 15.0762 88.6458 15.2466 88.45 15.46C88.0767 15.9377 87.8972 16.5386 87.9472 17.1428C87.9972 17.747 88.2732 18.3102 88.72 18.72C88.9158 18.9334 89.1538 19.1037 89.4189 19.2203C89.684 19.3368 89.9704 19.397 90.26 19.397C90.5496 19.397 90.836 19.3368 91.1011 19.2203C91.3662 19.1037 91.6042 18.9334 91.8 18.72Z" fill="url(#paint0_linear_4452_248)"/>
<path d="M90.36 31.4999C90.067 31.6115 89.806 31.7935 89.6 32.0299C89.3426 32.3455 89.1737 32.7239 89.1104 33.1262C89.0472 33.5286 89.0919 33.9405 89.24 34.3199C89.3724 34.6962 89.5877 35.038 89.87 35.3199C90.0658 35.5333 90.3038 35.7036 90.5689 35.8202C90.834 35.9367 91.1204 35.9969 91.41 35.9969C91.6996 35.9969 91.986 35.9367 92.2511 35.8202C92.5163 35.7036 92.7542 35.5333 92.95 35.3199C93.3364 34.8362 93.5235 34.2233 93.4734 33.6063C93.4232 32.9894 93.1394 32.4148 92.68 31.9999C92.3816 31.7035 92.0044 31.4988 91.5932 31.4102C91.182 31.3216 90.7541 31.3527 90.36 31.4999Z" fill="url(#paint1_linear_4452_248)"/>
<path d="M118.76 34.16C119.001 33.8733 119.163 33.5285 119.23 33.16C119.245 33.0204 119.245 32.8795 119.23 32.74C119.219 32.0574 118.938 31.4069 118.45 30.93C118.254 30.7166 118.016 30.5462 117.751 30.4297C117.486 30.3131 117.2 30.2529 116.91 30.2529C116.62 30.2529 116.334 30.3131 116.069 30.4297C115.804 30.5462 115.566 30.7166 115.37 30.93C115.001 31.4094 114.824 32.0093 114.874 32.6122C114.924 33.2151 115.197 33.7777 115.64 34.19C115.839 34.4066 116.081 34.579 116.351 34.696C116.621 34.813 116.912 34.872 117.207 34.8692C117.501 34.8663 117.791 34.8017 118.059 34.6796C118.326 34.5574 118.565 34.3804 118.76 34.16Z" fill="url(#paint2_linear_4452_248)"/>
<path d="M108.51 54.1199L108.46 54.1799L108.35 54.3299C108.061 54.8123 107.946 55.3791 108.025 55.9358C108.103 56.4926 108.37 57.0058 108.78 57.3899C109.175 57.7807 109.696 58.0182 110.25 58.0599C110.522 58.0748 110.794 58.034 111.05 57.9399C111.364 57.8309 111.643 57.6412 111.86 57.3899C112.229 56.9104 112.406 56.3106 112.356 55.7077C112.306 55.1048 112.033 54.5422 111.59 54.1299C111.393 53.9185 111.155 53.7498 110.891 53.6341C110.626 53.5184 110.341 53.4582 110.052 53.4573C109.764 53.4563 109.478 53.5147 109.212 53.6286C108.947 53.7426 108.708 53.9098 108.51 54.1199Z" fill="url(#paint3_linear_4452_248)"/>
<path d="M129.88 64.5401C130.135 64.2024 130.299 63.8045 130.355 63.385C130.412 62.9655 130.359 62.5385 130.202 62.1453C130.045 61.7521 129.79 61.4061 129.46 61.1407C129.13 60.8752 128.738 60.6993 128.32 60.6301C127.992 60.5732 127.656 60.6033 127.343 60.7173C127.031 60.8314 126.754 61.0254 126.54 61.2801C126.387 61.4506 126.265 61.647 126.18 61.8601C126.013 62.3181 125.984 62.8148 126.096 63.2892C126.208 63.7636 126.456 64.1949 126.81 64.5301C127.004 64.7438 127.241 64.9148 127.505 65.0321C127.769 65.1494 128.054 65.2105 128.343 65.2114C128.632 65.2124 128.917 65.1532 129.182 65.0376C129.447 64.922 129.684 64.7526 129.88 64.5401Z" fill="url(#paint4_linear_4452_248)"/>
<path d="M149.75 53.5299C149.102 51.848 148.209 50.271 147.1 48.8499C144.92 46.0799 142.52 43.4699 140.21 40.7999C138.92 39.2999 137.6 37.7999 136.21 36.2699C129.54 42.2699 123.13 48.1299 116.62 53.8699C116.355 54.1014 116.105 54.3485 115.87 54.6099C116.142 55.5685 116.177 56.5785 115.973 57.5537C115.77 58.529 115.333 59.4403 114.7 60.2099C114.6 60.3099 114.51 60.4199 114.41 60.5099C113.857 61.0201 113.21 61.4163 112.504 61.6759C111.798 61.9354 111.048 62.0533 110.297 62.0226C109.545 61.992 108.807 61.8134 108.125 61.4972C107.442 61.1811 106.829 60.7334 106.32 60.1799C105.108 59.0627 104.36 57.5305 104.224 55.8874C104.089 54.2443 104.577 52.6104 105.59 51.3099C105.854 51.0034 106.153 50.7283 106.48 50.4899C107.307 49.9099 108.277 49.5662 109.284 49.4957C110.292 49.4252 111.3 49.6307 112.2 50.0899L112.53 49.8299C120.16 43.4099 127.83 37.0499 135.44 30.6299C135.999 30.0881 136.688 29.6989 137.44 29.4999C137.895 29.6094 138.365 29.6398 138.83 29.5899C139.761 29.4896 140.619 29.0392 141.23 28.3299C141.613 27.871 141.895 27.3361 142.057 26.7605C142.219 26.1849 142.258 25.5815 142.17 24.9899C142.022 23.8842 141.508 22.8599 140.71 22.0799C140.285 21.6512 139.776 21.3145 139.215 21.0908C138.654 20.8672 138.054 20.7614 137.45 20.7799C136.948 20.8028 136.455 20.9281 136.003 21.1482C135.551 21.3683 135.148 21.6786 134.82 22.0599C134.498 22.4327 134.25 22.8638 134.09 23.3299C133.86 23.9907 133.788 24.6963 133.88 25.3899C133.393 26.2686 132.708 27.0218 131.88 27.5899C130.32 28.7999 129.58 28.5199 128.47 27.1599C126.02 24.1599 123.47 21.2699 120.81 18.2199C112.81 23.0999 104.93 27.8799 97.1 32.7499C97.3304 33.6781 97.34 34.6474 97.1281 35.5799C96.9163 36.5125 96.4888 37.3824 95.88 38.1199C95.3759 38.6669 94.7687 39.1089 94.0933 39.4206C93.418 39.7323 92.6877 39.9076 91.9444 39.9364C91.2011 39.9652 90.4595 39.847 89.762 39.5884C89.0645 39.3299 88.425 38.9362 87.88 38.4299L87.51 38.0899C86.3002 36.9716 85.5532 35.4406 85.4162 33.7988C85.2793 32.1569 85.7623 30.5233 86.77 29.2199C87.1906 28.7284 87.6951 28.3153 88.26 27.9999C89.1116 27.5757 90.0562 27.3726 91.0069 27.4093C91.9575 27.446 92.8837 27.7214 93.7 28.2099C93.9978 28.0829 94.2882 27.9393 94.57 27.7799C102.75 23.1099 110.96 18.5299 119.16 13.9099C119.984 13.3907 120.862 12.9648 121.78 12.6399C122.282 12.9232 122.837 13.098 123.411 13.1531C123.985 13.2083 124.563 13.1424 125.11 12.9599C125.71 12.7425 126.244 12.374 126.66 11.8899C127.102 11.3568 127.41 10.7249 127.556 10.0477C127.702 9.37054 127.683 8.66812 127.5 7.99994C127.277 7.10137 126.806 6.28362 126.14 5.63994C125.63 5.11752 124.994 4.73402 124.294 4.52577C123.594 4.31753 122.853 4.29143 122.14 4.44994C121.402 4.63573 120.738 5.04421 120.24 5.61994C120.004 5.89414 119.809 6.20056 119.66 6.52994C119.387 7.11513 119.251 7.75442 119.26 8.39994C118.6 9.39994 117.26 9.87994 116.11 10.5199C115.929 10.6577 115.72 10.7555 115.498 10.8072C115.276 10.8588 115.046 10.8631 114.822 10.8197C114.599 10.7762 114.387 10.6861 114.2 10.5552C114.014 10.4243 113.857 10.2556 113.74 10.0599C112.19 8.15994 110.54 6.34994 108.94 4.49994C105.56 0.589943 102.17 -1.30006 96.12 1.02994C83.12 6.02994 69.9 10.7299 56.77 15.5699C52.12 17.2799 47.44 18.9599 42.77 20.8099C39.04 22.2999 37.09 25.0399 37.57 28.6399C37.9819 30.5207 38.8125 32.2844 40 33.7999C42.44 37.3499 45.23 40.8699 47.84 44.3799C47.4739 44.6376 47.0896 44.8682 46.69 45.0699C39.22 48.8799 31.75 52.7099 24.23 56.4499C24.1363 56.4941 24.0394 56.5308 23.94 56.5599C22.0758 55.3496 19.9684 54.5637 17.7669 54.2579C15.5654 53.952 13.3236 54.1337 11.2 54.7899C3.46001 56.9999 -1.39999 64.0899 0.360013 70.6599C2.12001 77.2299 9.81001 80.7799 17.54 78.5899C24.91 76.4999 29.65 69.9999 28.59 63.6699C28.8447 63.3796 29.1454 63.1329 29.48 62.9399C37.4133 58.5133 45.3567 54.1033 53.31 49.7099L58.59 46.7899C62.08 44.8499 65.59 42.8699 69.14 40.8499L69.26 40.7799L68.96 40.3899L59.55 28.1299C60.64 27.5799 61.37 27.1299 62.13 26.8299L65.05 25.5199C71.15 22.7999 77.25 20.0699 83.36 17.3799C83.6501 17.2601 83.928 17.1128 84.19 16.9399C84.1264 16.1677 84.2155 15.3905 84.4523 14.6527C84.6891 13.9149 85.0689 13.231 85.57 12.6399C87.68 10.1899 91.43 10.1999 93.95 12.6399C94.8286 13.5022 95.4693 14.577 95.81 15.7599C96.0966 16.6687 96.1726 17.6308 96.0322 18.5733C95.8919 19.5158 95.5389 20.4141 95 21.1999C94.9187 21.3199 94.8284 21.4336 94.73 21.5399C94.215 22.0986 93.5929 22.5479 92.9005 22.861C92.2082 23.1741 91.4599 23.3446 90.7003 23.3623C89.9407 23.3801 89.1853 23.2447 88.4791 22.9642C87.773 22.6838 87.1305 22.264 86.59 21.7299C82.22 23.7299 77.91 25.9099 73.59 28.0299C72.08 28.7699 70.59 29.5199 68.88 30.3699L74.26 37.2799L77.26 41.1399L78.43 43.2299L73.43 46.2299L56.87 55.9999L59.36 59.9999L57.45 61.2899L56.91 61.6399L55.83 62.3699L54.83 63.0399L53.63 63.8399C53.37 63.6899 53.11 63.5399 52.84 63.3999C51.1568 62.5938 49.3154 62.1722 47.4491 62.1657C45.5829 62.1593 43.7385 62.5682 42.0498 63.3627C40.3612 64.1573 38.8704 65.3176 37.6857 66.7596C36.5009 68.2016 35.6519 69.8892 35.2 71.6999C35.2 71.8499 35.14 71.9899 35.12 72.1299C35.1153 72.1999 35.1153 72.27 35.12 72.3399C35.12 72.4499 35.12 72.5599 35.12 72.6699L35 72.9999C35 73.1299 35 73.2699 35 73.3999C34.9477 74.5338 35.0966 75.668 35.44 76.7499C37.19 82.2299 43.44 85.0399 49.58 83.0899L49.8 83.0199C55.41 81.1099 58.87 75.7799 58.08 70.6499C58.08 70.5199 58.08 70.3999 58.01 70.2699L58.7 69.7999L63.06 66.7999C64.58 65.7999 66.06 64.7999 67.59 63.7199C81.93 53.8066 96.2633 43.8933 110.59 33.9799C110.832 33.8237 111.059 33.6464 111.27 33.4499C111.043 32.5241 111.036 31.5579 111.249 30.6288C111.463 29.6997 111.891 28.8336 112.5 28.0999C114.61 25.6499 118.36 25.6599 120.88 28.0999C122.09 29.2184 122.837 30.7503 122.972 32.3928C123.107 34.0353 122.621 35.6686 121.61 36.9699C120.715 37.9656 119.489 38.6033 118.16 38.765C116.831 38.9268 115.488 38.6017 114.38 37.8499C101.86 47.0499 89.38 56.2933 76.94 65.5799C74.16 67.6399 71.42 69.7699 68.57 71.9299C69.05 72.5699 69.46 73.1499 69.85 73.6799C70.06 73.9599 70.26 74.2299 70.48 74.4799L70.56 74.5799L70.84 74.8999C71.0776 75.1461 71.2826 75.4216 71.45 75.7199L72.26 76.7199L71.26 77.5499C71.0059 77.8365 70.7246 78.0977 70.42 78.3299C64.82 82.6699 59.25 87.0599 53.78 91.5599C52.6335 92.6762 51.2438 93.5114 49.72 93.9999C45.39 92.1999 39.72 93.0999 35.18 96.7799C31.9205 99.3399 29.7401 103.03 29.07 107.12C29.069 107.137 29.069 107.153 29.07 107.17C28.8208 108.658 28.8693 110.181 29.2126 111.65C29.5559 113.12 30.1872 114.506 31.07 115.73C34.74 120.57 41.95 121.23 47.97 117.58C48.6376 117.179 49.2759 116.731 49.88 116.24C54.72 112.34 56.88 106.46 55.88 101.52C56.291 100.939 56.7904 100.426 57.36 99.9999C67.18 91.6299 76.94 83.1899 86.73 74.7799C88.56 73.2099 90.4 71.6399 92.27 70.0599L96.67 66.3199C100.29 70.8499 103.73 75.1699 107.27 79.6199C108 78.9999 108.51 78.5099 109 77.9999C113.23 73.5899 117.43 69.1299 121.7 64.7599C121.972 64.4936 122.223 64.206 122.45 63.8999C122.102 62.5112 122.232 61.0454 122.82 59.7399C123.037 59.2744 123.316 58.8404 123.65 58.4499C124.326 57.6807 125.207 57.1197 126.189 56.8328C127.172 56.5459 128.217 56.5449 129.2 56.8299C130.247 57.1349 131.204 57.6877 131.992 58.4416C132.779 59.1955 133.374 60.1281 133.724 61.1605C134.074 62.1929 134.17 63.2945 134.004 64.3719C133.838 65.4494 133.415 66.4709 132.77 67.3499C131.996 68.2223 130.962 68.8233 129.821 69.0645C128.68 69.3058 127.491 69.1744 126.43 68.6899C126.172 68.8633 125.934 69.0645 125.72 69.2899C120.95 74.5699 116.19 79.8699 111.5 85.2299C111.22 85.5599 110.93 85.8799 110.65 86.2299L107.87 88.8899L107.5 89.2399L107.14 88.8399L104.58 85.9999C103.33 84.3799 102.07 82.7799 100.81 81.1699L100.75 81.0899L97.14 76.4699L96.43 75.5699L95.52 76.4099C95.353 76.538 95.1959 76.6784 95.05 76.8299L94.58 77.2899L89.35 82.1299L89.11 82.3499L88.26 83.1299L87.69 83.6699C85.69 85.5299 83.69 87.4099 81.62 89.3999C86.98 96.4799 92.04 103.52 97.5 110.21C98.2079 111.115 99.0921 111.867 100.099 112.42C101.106 112.973 102.215 113.316 103.358 113.428C104.501 113.541 105.656 113.42 106.751 113.073C107.846 112.726 108.86 112.16 109.73 111.41C110.962 110.303 112.062 109.058 113.01 107.7C124.93 91.8299 136.79 75.9299 148.73 60.0799C149.48 59.1843 149.971 58.101 150.151 56.9468C150.331 55.7926 150.192 54.6112 149.75 53.5299ZM136.85 23.9999C136.991 23.8391 137.167 23.7137 137.365 23.6338C137.563 23.5539 137.777 23.5217 137.99 23.5399C138.368 23.5754 138.722 23.7416 138.99 24.0099C139.322 24.3269 139.516 24.7614 139.53 25.2199C139.559 25.6149 139.433 26.0056 139.18 26.3099C139.018 26.493 138.811 26.6309 138.58 26.7099C138.306 26.7922 138.014 26.7975 137.738 26.7251C137.461 26.6528 137.209 26.5057 137.01 26.2999C136.838 26.1338 136.701 25.9351 136.606 25.7153C136.512 25.4955 136.462 25.2591 136.46 25.0199C136.456 24.6428 136.596 24.2783 136.85 23.9999ZM122.28 7.58994L122.35 7.52994C122.62 7.27317 122.978 7.12994 123.35 7.12994C123.722 7.12994 124.08 7.27317 124.35 7.52994L124.43 7.59994C124.59 7.75809 124.719 7.9446 124.81 8.14994C124.952 8.4286 125.009 8.74245 124.975 9.05321C124.942 9.36396 124.818 9.65818 124.62 9.89994C124.485 10.0548 124.318 10.179 124.131 10.2641C123.944 10.3492 123.741 10.3932 123.535 10.3932C123.329 10.3932 123.126 10.3492 122.939 10.2641C122.752 10.179 122.585 10.0548 122.45 9.89994C122.137 9.60644 121.946 9.20601 121.914 8.77811C121.883 8.3502 122.013 7.9261 122.28 7.58994ZM15.74 70.4199C12.83 71.1999 10 69.9999 9.42001 67.6999C8.84001 65.3999 10.72 62.9099 13.64 62.1299C16.56 61.3499 19.38 62.5599 19.96 64.8499C20.54 67.1399 18.65 69.6299 15.74 70.4199ZM47.93 76.7299C47.3911 76.9145 46.821 76.9902 46.2526 76.9526C45.6842 76.915 45.129 76.7648 44.6192 76.5108C44.1093 76.2568 43.655 75.9041 43.2826 75.473C42.9103 75.042 42.6272 74.5413 42.45 73.9999C42.2426 72.8562 42.489 71.6766 43.1368 70.7114C43.7846 69.7462 44.7829 69.0713 45.92 68.8299C46.4603 68.6486 47.0311 68.5759 47.5996 68.6161C48.1681 68.6563 48.7231 68.8086 49.2324 69.0642C49.7418 69.3198 50.1956 69.6737 50.5676 70.1055C50.9396 70.5373 51.2225 71.0384 51.4 71.5799C51.6043 72.721 51.3563 73.8967 50.7086 74.8581C50.0608 75.8194 49.0643 76.4908 47.93 76.7299ZM45.5 109.73C43.26 111.79 40.13 111.96 38.5 110.09C36.87 108.22 37.38 105.09 39.62 102.97C41.86 100.85 44.99 100.73 46.62 102.6C48.25 104.47 47.74 107.67 45.5 109.74V109.73Z" fill="url(#paint5_linear_4452_248)"/>
<path d="M174.23 41.1099H178C178.127 41.1083 178.251 41.1507 178.35 41.2299C178.393 41.2694 178.428 41.3172 178.452 41.3705C178.476 41.4238 178.489 41.4814 178.49 41.5399V65.7499C178.489 65.8084 178.476 65.8661 178.452 65.9194C178.428 65.9727 178.393 66.0205 178.35 66.0599C178.251 66.1391 178.127 66.1815 178 66.1799H174.21C174.083 66.1815 173.959 66.1391 173.86 66.0599C173.817 66.0205 173.782 65.9727 173.758 65.9194C173.734 65.8661 173.721 65.8084 173.72 65.7499V48.8499C173.72 48.7499 173.72 48.6999 173.64 48.6999C173.56 48.6999 173.53 48.6999 173.47 48.8099L169.89 54.4699C169.76 54.6599 169.63 54.7499 169.52 54.7499C169.41 54.7499 169.29 54.6599 169.15 54.4699L165.58 48.8099C165.52 48.7399 165.47 48.6999 165.41 48.6999C165.35 48.6999 165.33 48.6999 165.33 48.8499V65.7499C165.329 65.8084 165.316 65.8661 165.292 65.9194C165.268 65.9727 165.233 66.0205 165.19 66.0599C165.091 66.1391 164.967 66.1815 164.84 66.1799H161.05C160.923 66.1833 160.799 66.1407 160.7 66.0599C160.657 66.0205 160.622 65.9727 160.598 65.9194C160.574 65.8661 160.561 65.8084 160.56 65.7499V41.5399C160.561 41.4814 160.574 41.4238 160.598 41.3705C160.622 41.3172 160.657 41.2694 160.7 41.2299C160.799 41.1492 160.923 41.1066 161.05 41.1099H164.84C164.958 41.1009 165.077 41.123 165.184 41.1738C165.291 41.2247 165.382 41.3026 165.45 41.3999L169.45 47.5199C169.462 47.5431 169.48 47.5625 169.502 47.5761C169.524 47.5897 169.549 47.5969 169.575 47.5969C169.601 47.5969 169.626 47.5897 169.648 47.5761C169.671 47.5625 169.688 47.5431 169.7 47.5199L173.61 41.3999C173.679 41.3011 173.772 41.2222 173.881 41.1712C173.99 41.1203 174.11 41.0991 174.23 41.1099Z" fill="#1E1E1D"/>
<path d="M182.91 44.65C182.644 44.4287 182.432 44.1499 182.29 43.8346C182.148 43.5192 182.08 43.1757 182.09 42.83C182.081 42.4831 182.15 42.1386 182.292 41.8219C182.434 41.5052 182.645 41.2243 182.91 41C183.496 40.5073 184.245 40.2507 185.01 40.28C185.769 40.2478 186.513 40.5052 187.09 41C187.349 41.228 187.555 41.5101 187.693 41.8262C187.831 42.1424 187.898 42.4851 187.89 42.83C187.898 43.1754 187.829 43.5182 187.687 43.8332C187.545 44.1482 187.334 44.4273 187.07 44.65C186.498 45.1401 185.763 45.3971 185.01 45.37C184.245 45.3994 183.496 45.1427 182.91 44.65ZM182.81 66.06C182.763 66.0228 182.726 65.9756 182.7 65.922C182.674 65.8684 182.66 65.8096 182.66 65.75V48.31C182.66 48.2505 182.674 48.1917 182.7 48.1381C182.726 48.0844 182.763 48.0373 182.81 48C182.907 47.9176 183.032 47.8748 183.16 47.88H186.94C187.067 47.8767 187.191 47.9193 187.29 48C187.335 48.0378 187.371 48.0853 187.395 48.139C187.42 48.1927 187.431 48.2512 187.43 48.31V65.75C187.431 65.8089 187.42 65.8674 187.395 65.9211C187.371 65.9748 187.335 66.0223 187.29 66.06C187.191 66.1408 187.067 66.1834 186.94 66.18H183.16C183.032 66.1853 182.907 66.1424 182.81 66.06Z" fill="#1E1E1D"/>
<path d="M193 64.8901C192.353 64.3889 191.835 63.7414 191.487 63.0009C191.139 62.2603 190.973 61.4478 191 60.6301V53.3901C190.979 52.5819 191.149 51.7803 191.497 51.0504C191.844 50.3205 192.359 49.6831 193 49.1901C194.53 48.0479 196.414 47.4813 198.32 47.5901C200.229 47.487 202.116 48.0372 203.67 49.1501C204.3 49.6074 204.81 50.2096 205.159 50.9058C205.507 51.602 205.682 52.3718 205.67 53.1501V53.6501C205.67 53.7073 205.658 53.7638 205.633 53.8157C205.609 53.8675 205.574 53.9134 205.53 53.9501C205.435 54.0379 205.309 54.0846 205.18 54.0801L201.4 54.2201C201.07 54.2201 200.9 54.0801 200.9 53.7901V53.4301C200.902 53.1346 200.838 52.8423 200.714 52.5743C200.589 52.3063 200.407 52.0692 200.18 51.8801C199.682 51.4252 199.024 51.1845 198.35 51.2101C198.015 51.1982 197.681 51.256 197.369 51.3799C197.058 51.5039 196.775 51.6912 196.54 51.9301C196.308 52.1736 196.127 52.4607 196.006 52.7749C195.886 53.089 195.83 53.4239 195.84 53.7601V60.3801C195.83 60.7163 195.886 61.0512 196.006 61.3653C196.127 61.6794 196.308 61.9666 196.54 62.2101C196.775 62.449 197.058 62.6363 197.369 62.7602C197.681 62.8842 198.015 62.942 198.35 62.9301C199.024 62.9514 199.679 62.7113 200.18 62.2601C200.408 62.0631 200.591 61.8188 200.715 61.5443C200.839 61.2697 200.902 60.9715 200.9 60.6701V60.3101C200.892 60.2542 200.897 60.1972 200.914 60.1435C200.931 60.0898 200.961 60.0407 201 60.0001C201.047 59.9561 201.102 59.922 201.162 59.8997C201.222 59.8773 201.286 59.8673 201.35 59.8701H205.13C205.257 59.8667 205.382 59.9093 205.48 59.9901C205.523 60.0295 205.558 60.0774 205.582 60.1307C205.606 60.184 205.619 60.2416 205.62 60.3001V61.0001C205.634 61.7787 205.459 62.549 205.111 63.2455C204.763 63.942 204.251 64.544 203.62 65.0001C202.055 66.086 200.173 66.6207 198.27 66.5201C196.378 66.5992 194.517 66.0235 193 64.8901Z" fill="#1E1E1D"/>
<path d="M219 47.9999C219.1 48.0441 219.181 48.1233 219.227 48.2227C219.273 48.3221 219.281 48.4349 219.25 48.5399L218.59 51.8699C218.59 52.1599 218.37 52.2399 218.01 52.1199C217.679 52.0435 217.34 52.0033 217 51.9999C216.697 51.9951 216.395 52.0287 216.1 52.0999C215.726 52.1464 215.367 52.271 215.045 52.4657C214.722 52.6604 214.445 52.9208 214.23 53.2299C213.742 53.9145 213.489 54.7392 213.51 55.5799V65.7199C213.51 65.7782 213.497 65.8357 213.471 65.8879C213.445 65.94 213.407 65.9852 213.36 66.0199C213.267 66.1036 213.146 66.1499 213.02 66.1499H209.23C209.102 66.1496 208.978 66.1035 208.88 66.0199C208.834 65.9847 208.798 65.9392 208.774 65.887C208.749 65.8347 208.738 65.7775 208.74 65.7199V48.3099C208.738 48.251 208.75 48.1925 208.774 48.1388C208.799 48.0851 208.835 48.0376 208.88 47.9999C208.979 47.9192 209.103 47.8766 209.23 47.8799H213C213.124 47.8762 213.246 47.919 213.34 47.9999C213.387 48.0371 213.424 48.0843 213.45 48.1379C213.476 48.1916 213.49 48.2503 213.49 48.3099V49.9999C213.49 50.0899 213.49 50.1399 213.57 50.1599C213.65 50.1799 213.67 50.1599 213.69 50.0299C213.982 49.3176 214.486 48.7122 215.134 48.2955C215.781 47.8789 216.541 47.6709 217.31 47.6999C217.89 47.6564 218.471 47.7595 219 47.9999Z" fill="#1E1E1D"/>
<path d="M223 64.89C222.355 64.3872 221.838 63.7394 221.49 62.9992C221.143 62.2591 220.975 61.4474 221 60.63V53.43C220.975 52.6156 221.143 51.8068 221.491 51.0698C221.838 50.3328 222.356 49.6887 223 49.19C224.594 48.1455 226.459 47.5891 228.365 47.5891C230.271 47.5891 232.136 48.1455 233.73 49.19C234.374 49.6887 234.892 50.3328 235.239 51.0698C235.587 51.8068 235.755 52.6156 235.73 53.43V60.63C235.757 61.4477 235.591 62.2602 235.243 63.0008C234.895 63.7414 234.377 64.3889 233.73 64.89C232.122 65.9177 230.253 66.4638 228.345 66.4638C226.437 66.4638 224.568 65.9177 222.96 64.89H223ZM230.24 62.15C230.482 61.9105 230.671 61.6231 230.795 61.3062C230.919 60.9893 230.975 60.65 230.96 60.31V53.72C230.971 53.382 230.913 53.0453 230.789 52.7306C230.665 52.4159 230.478 52.1299 230.24 51.89C229.886 51.5075 229.423 51.2425 228.914 51.1309C228.405 51.0192 227.874 51.0662 227.393 51.2656C226.911 51.465 226.502 51.8071 226.221 52.246C225.94 52.6848 225.8 53.1992 225.82 53.72V60.31C225.798 60.6502 225.849 60.9912 225.969 61.3101C226.089 61.629 226.277 61.9185 226.518 62.1591C226.76 62.3996 227.05 62.5857 227.369 62.7049C227.689 62.8241 228.03 62.8736 228.37 62.85C229.045 62.8649 229.699 62.6134 230.19 62.15H230.24Z" fill="#1E1E1D"/>
<path d="M247.75 50.6899C247.652 50.7735 247.528 50.8196 247.4 50.8199H244.85C244.71 50.8199 244.64 50.8799 244.64 50.9899V60.3799C244.606 60.6914 244.637 61.0066 244.729 61.3059C244.822 61.6052 244.976 61.8822 245.18 62.1199C245.634 62.4717 246.209 62.6299 246.78 62.5599H247.07C247.198 62.5602 247.322 62.6063 247.42 62.6899C247.464 62.7266 247.499 62.7725 247.523 62.8243C247.548 62.8761 247.56 62.9327 247.56 62.9899V65.7499C247.559 65.8084 247.546 65.866 247.522 65.9193C247.498 65.9726 247.463 66.0205 247.42 66.0599C247.322 66.1406 247.197 66.1832 247.07 66.1799H245.67C244.209 66.2695 242.751 65.962 241.45 65.2899C240.51 64.6899 240.04 63.5699 240.04 61.9199V50.9999C240.04 50.8899 239.97 50.8299 239.83 50.8299H238.39C238.262 50.8296 238.137 50.7835 238.04 50.6999C237.994 50.6647 237.958 50.6191 237.933 50.5669C237.909 50.5147 237.898 50.4575 237.9 50.3999V48.3099C237.893 48.2541 237.899 48.1975 237.916 48.144C237.933 48.0904 237.962 48.0413 238 47.9999C238.098 47.9191 238.223 47.8765 238.35 47.8799H239.79C239.93 47.8799 240 47.8199 240 47.6999V43.7599C239.998 43.7023 240.009 43.645 240.033 43.5928C240.058 43.5406 240.094 43.495 240.14 43.4599C240.235 43.3721 240.361 43.3253 240.49 43.3299H244.11C244.239 43.3253 244.365 43.3721 244.46 43.4599C244.504 43.4966 244.539 43.5425 244.563 43.5943C244.588 43.6461 244.6 43.7027 244.6 43.7599V47.6999C244.6 47.8199 244.67 47.8799 244.81 47.8799H247.36C247.487 47.8765 247.612 47.9191 247.71 47.9999C247.753 48.0393 247.788 48.0872 247.812 48.1405C247.836 48.1938 247.849 48.2514 247.85 48.3099V50.3899C247.855 50.4441 247.849 50.4988 247.832 50.5505C247.815 50.6022 247.787 50.6496 247.75 50.6899Z" fill="#1E1E1D"/>
<path d="M264.77 58.4301C264.673 58.5125 264.548 58.5553 264.42 58.5501H255.33C255.2 58.5501 255.13 58.6101 255.13 58.7301V60.3401C255.118 60.6765 255.173 61.012 255.293 61.3265C255.414 61.641 255.596 61.9279 255.83 62.1701C256.065 62.4099 256.347 62.5979 256.659 62.722C256.971 62.846 257.305 62.9032 257.64 62.8901C258.223 62.9018 258.793 62.7188 259.26 62.3701C259.702 62.0349 260.016 61.5585 260.15 61.0201C260.184 60.9094 260.256 60.8139 260.352 60.7501C260.449 60.6863 260.565 60.658 260.68 60.6701L264.34 60.8101C264.468 60.8048 264.593 60.8477 264.69 60.9301C264.737 60.9714 264.772 61.0253 264.79 61.0855C264.807 61.1457 264.808 61.2098 264.79 61.2701C264.737 62.0238 264.523 62.7575 264.162 63.4216C263.802 64.0857 263.303 64.6648 262.7 65.1201C261.115 66.0405 259.308 66.5077 257.476 66.4707C255.643 66.4337 253.856 65.8938 252.31 64.9101C251.674 64.4073 251.165 63.7611 250.826 63.0241C250.487 62.2872 250.328 61.4805 250.36 60.6701V53.3901C250.335 52.5864 250.498 51.7879 250.836 51.0585C251.175 50.3292 251.68 49.6893 252.31 49.1901C253.89 48.1463 255.742 47.5898 257.635 47.5898C259.529 47.5898 261.38 48.1463 262.96 49.1901C263.601 49.683 264.116 50.3205 264.464 51.0503C264.811 51.7802 264.981 52.5819 264.96 53.3901V58.1201C264.955 58.1831 264.935 58.244 264.902 58.2979C264.869 58.3518 264.824 58.3971 264.77 58.4301ZM255.83 51.8901C255.596 52.1322 255.414 52.4192 255.293 52.7336C255.173 53.0481 255.118 53.3836 255.13 53.7201V55.3301C255.13 55.4501 255.2 55.5101 255.33 55.5101H260C260.14 55.5101 260.21 55.4501 260.21 55.3301V53.7201C260.231 53.3799 260.179 53.0392 260.058 52.7206C259.937 52.402 259.75 52.1126 259.509 51.8716C259.268 51.6306 258.978 51.4435 258.66 51.3226C258.341 51.2016 258 51.1497 257.66 51.1701C257.322 51.154 256.983 51.2099 256.668 51.334C256.353 51.4581 256.067 51.6476 255.83 51.8901Z" fill="#1E1E1D"/>
<path d="M269.83 64.89C269.194 64.3826 268.686 63.7326 268.347 62.9926C268.008 62.2526 267.848 61.4433 267.88 60.63V53.39C267.855 52.5863 268.018 51.7879 268.356 51.0585C268.695 50.3292 269.2 49.6893 269.83 49.19C271.364 48.0479 273.251 47.4815 275.16 47.59C277.066 47.4852 278.95 48.0357 280.5 49.1501C281.131 49.6062 281.643 50.2081 281.991 50.9046C282.339 51.6011 282.514 52.3715 282.5 53.1501V53.6501C282.5 53.7073 282.488 53.7638 282.463 53.8156C282.439 53.8675 282.404 53.9134 282.36 53.95C282.25 54.0104 282.122 54.0282 282 54L278.21 54.14C277.88 54.14 277.72 54 277.72 53.71V53.35C277.722 53.0545 277.658 52.7623 277.534 52.4943C277.409 52.2263 277.227 51.9892 277 51.8C276.502 51.3451 275.844 51.1045 275.17 51.13C274.835 51.1169 274.5 51.1741 274.189 51.2982C273.877 51.4222 273.595 51.6102 273.36 51.85C273.126 52.0922 272.943 52.3792 272.823 52.6936C272.703 53.0081 272.647 53.3436 272.66 53.68V60.3001C272.647 60.6365 272.703 60.972 272.823 61.2865C272.943 61.6009 273.126 61.8879 273.36 62.13C273.595 62.3699 273.877 62.5579 274.189 62.6819C274.5 62.806 274.835 62.8632 275.17 62.85C275.844 62.8714 276.499 62.6313 277 62.18C277.228 61.983 277.41 61.7388 277.535 61.4642C277.659 61.1897 277.722 60.8914 277.72 60.59V60.2301C277.72 60.1728 277.732 60.1163 277.757 60.0645C277.781 60.0126 277.816 59.9667 277.86 59.93C277.955 59.8422 278.081 59.7955 278.21 59.8001H282C282.127 59.7984 282.251 59.8408 282.35 59.92C282.393 59.9595 282.428 60.0073 282.452 60.0606C282.476 60.1139 282.489 60.1716 282.49 60.2301V61C282.505 61.7789 282.331 62.5499 281.983 63.2466C281.635 63.9434 281.122 64.5451 280.49 65C278.929 66.0873 277.05 66.6223 275.15 66.52C273.241 66.6083 271.361 66.0323 269.83 64.89Z" fill="#1E1E1D"/>
<path d="M298.62 49.15C299.611 50.4018 300.103 51.9767 300 53.57V65.75C299.999 65.8085 299.986 65.8662 299.962 65.9195C299.938 65.9728 299.903 66.0206 299.86 66.06C299.761 66.1393 299.637 66.1817 299.51 66.18H295.72C295.593 66.1817 295.469 66.1393 295.37 66.06C295.327 66.0206 295.292 65.9728 295.268 65.9195C295.244 65.8662 295.231 65.8085 295.23 65.75V53.9C295.27 53.1806 295.05 52.4706 294.61 51.9C294.388 51.6547 294.114 51.4625 293.807 51.3378C293.501 51.2132 293.17 51.1592 292.84 51.18C292.494 51.16 292.149 51.2179 291.829 51.3494C291.508 51.481 291.222 51.6828 290.99 51.94C290.523 52.5248 290.291 53.2631 290.34 54.01V65.75C290.34 65.8096 290.326 65.8684 290.3 65.922C290.274 65.9756 290.237 66.0228 290.19 66.06C290.093 66.1424 289.968 66.1853 289.84 66.18H286.06C285.932 66.1853 285.808 66.1424 285.71 66.06C285.664 66.0228 285.626 65.9756 285.6 65.922C285.574 65.8684 285.56 65.8096 285.56 65.75V41.54C285.56 41.4805 285.574 41.4217 285.6 41.3681C285.626 41.3144 285.664 41.2673 285.71 41.23C285.808 41.1476 285.932 41.1048 286.06 41.11H289.84C289.968 41.1048 290.093 41.1476 290.19 41.23C290.237 41.2673 290.274 41.3144 290.3 41.3681C290.326 41.4217 290.34 41.4805 290.34 41.54V49C290.34 49.08 290.34 49.12 290.44 49.13C290.54 49.14 290.58 49.13 290.66 49C291.18 48.5077 291.795 48.1268 292.467 47.8809C293.14 47.635 293.855 47.5292 294.57 47.57C295.32 47.5201 296.071 47.6358 296.771 47.9089C297.471 48.1819 298.102 48.6057 298.62 49.15Z" fill="#1E1E1D"/>
<path d="M162 100.49C161.316 99.9197 160.771 99.2008 160.407 98.388C160.044 97.5752 159.87 96.6901 159.9 95.8001V94.8701C159.9 94.8129 159.912 94.7563 159.937 94.7045C159.961 94.6526 159.996 94.6068 160.04 94.5701C160.135 94.4823 160.261 94.4355 160.39 94.4401H164.14C164.269 94.4376 164.394 94.4841 164.49 94.5701C164.534 94.6068 164.569 94.6526 164.593 94.7045C164.618 94.7563 164.63 94.8129 164.63 94.8701V95.5901C164.593 96.4157 164.88 97.223 165.43 97.8401C165.694 98.1246 166.017 98.3487 166.376 98.4972C166.735 98.6456 167.122 98.7148 167.51 98.7001C168.035 98.6864 168.547 98.5353 168.995 98.2618C169.443 97.9882 169.812 97.6019 170.064 97.1413C170.316 96.6807 170.443 96.1621 170.431 95.6372C170.42 95.1123 170.271 94.5995 170 94.1501C169.647 93.6528 169.214 93.217 168.72 92.8601C168.17 92.4601 167.29 91.8601 166.09 91.1101C164.944 90.4101 163.839 89.6455 162.78 88.8201C161.939 88.1474 161.227 87.3274 160.68 86.4001C160.106 85.4039 159.815 84.2696 159.84 83.1201C159.795 82.2319 159.952 81.3451 160.298 80.5261C160.645 79.707 161.172 78.9768 161.84 78.3901C163.379 77.1692 165.308 76.5474 167.27 76.6401C169.272 76.5414 171.239 77.198 172.78 78.4801C173.472 79.0877 174.019 79.8419 174.382 80.6879C174.746 81.5338 174.916 82.4501 174.88 83.3701V84.2301C174.879 84.2886 174.866 84.3462 174.842 84.3995C174.818 84.4528 174.783 84.5007 174.74 84.5401C174.641 84.6193 174.517 84.6617 174.39 84.6601H170.69C170.562 84.6653 170.437 84.6225 170.34 84.5401C170.293 84.5028 170.256 84.4557 170.23 84.4021C170.204 84.3484 170.19 84.2897 170.19 84.2301V83.3001C170.211 82.8924 170.151 82.4845 170.014 82.1C169.877 81.7155 169.665 81.3621 169.39 81.0601C169.116 80.7787 168.785 80.5584 168.42 80.4136C168.054 80.2688 167.663 80.2029 167.27 80.2201C166.902 80.208 166.535 80.27 166.192 80.4022C165.848 80.5345 165.535 80.7344 165.27 80.9901C165.003 81.2738 164.796 81.6089 164.661 81.9751C164.527 82.3412 164.469 82.7307 164.49 83.1201C164.471 83.9321 164.773 84.7189 165.33 85.3101C166.342 86.2497 167.451 87.0778 168.64 87.7801C170.313 88.8468 171.573 89.7234 172.42 90.4101C173.221 91.0254 173.899 91.7851 174.42 92.6501C174.903 93.539 175.144 94.5389 175.12 95.5501C175.156 96.47 174.986 97.3864 174.622 98.2323C174.259 99.0782 173.712 99.8325 173.02 100.44C171.479 101.722 169.512 102.379 167.51 102.28C165.516 102.378 163.555 101.741 162 100.49Z" fill="#1E1E1D"/>
<path d="M179.85 100.71C179.203 100.209 178.685 99.5613 178.337 98.8207C177.99 98.0801 177.823 97.2676 177.85 96.4499V89.2499C177.826 88.4342 177.994 87.6242 178.342 86.8857C178.689 86.1473 179.206 85.5012 179.85 84.9999C181.447 83.9627 183.311 83.4106 185.215 83.4106C187.119 83.4106 188.983 83.9627 190.58 84.9999C191.224 85.5012 191.741 86.1473 192.088 86.8857C192.436 87.6242 192.604 88.4342 192.58 89.2499V96.4499C192.605 97.2673 192.437 98.079 192.09 98.8191C191.742 99.5593 191.225 100.207 190.58 100.71C188.972 101.738 187.103 102.284 185.195 102.284C183.287 102.284 181.418 101.738 179.81 100.71H179.85ZM187.09 97.9699C187.33 97.7277 187.517 97.4381 187.64 97.1196C187.762 96.8011 187.816 96.4607 187.8 96.1199V89.5299C187.814 89.194 187.758 88.8587 187.636 88.5454C187.514 88.2322 187.328 87.9477 187.09 87.7099C186.842 87.4686 186.547 87.2803 186.224 87.1566C185.901 87.0328 185.556 86.9761 185.21 86.9899C184.87 86.968 184.53 87.0187 184.211 87.1384C183.893 87.2582 183.603 87.4444 183.362 87.6846C183.121 87.9248 182.934 88.2136 182.812 88.5317C182.691 88.8499 182.64 89.1902 182.66 89.5299V96.1199C182.64 96.4601 182.692 96.8008 182.813 97.1194C182.934 97.438 183.121 97.7274 183.362 97.9684C183.603 98.2094 183.892 98.3965 184.211 98.5174C184.529 98.6384 184.87 98.6903 185.21 98.6699C185.901 98.7034 186.576 98.4626 187.09 97.9999V97.9699Z" fill="#1E1E1D"/>
<path d="M196 101.87C195.953 101.835 195.915 101.79 195.889 101.738C195.863 101.686 195.85 101.628 195.85 101.57V77.3601C195.85 77.3004 195.863 77.2414 195.889 77.1877C195.915 77.1339 195.953 77.0869 196 77.0501C196.098 76.9677 196.223 76.9249 196.35 76.9301H200.13C200.258 76.9249 200.383 76.9677 200.48 77.0501C200.527 77.0869 200.565 77.1339 200.591 77.1877C200.617 77.2414 200.631 77.3004 200.63 77.3601V101.57C200.63 101.628 200.617 101.686 200.591 101.738C200.565 101.79 200.527 101.835 200.48 101.87C200.433 101.914 200.378 101.948 200.318 101.971C200.258 101.993 200.194 102.003 200.13 102H196.35C196.286 102.003 196.222 101.993 196.162 101.971C196.102 101.948 196.047 101.914 196 101.87Z" fill="#1E1E1D"/>
<path d="M213.82 83.8199C213.917 83.7375 214.042 83.6947 214.17 83.6999H218C218.127 83.6965 218.251 83.7391 218.35 83.8199C218.396 83.8571 218.432 83.9045 218.457 83.9584C218.481 84.0122 218.492 84.0709 218.49 84.1299V101.57C218.492 101.627 218.481 101.685 218.456 101.737C218.432 101.789 218.396 101.835 218.35 101.87C218.255 101.958 218.129 102.004 218 102H214.22C214.156 102.003 214.092 101.993 214.032 101.97C213.972 101.948 213.917 101.914 213.87 101.87C213.823 101.835 213.785 101.79 213.759 101.738C213.733 101.686 213.72 101.628 213.72 101.57V100.78C213.72 100.71 213.72 100.66 213.64 100.64C213.56 100.62 213.53 100.64 213.48 100.71C213.009 101.251 212.416 101.673 211.75 101.94C211.084 102.208 210.365 102.314 209.65 102.25C208.203 102.304 206.784 101.84 205.65 100.94C205.113 100.429 204.696 99.8051 204.43 99.1133C204.163 98.4215 204.054 97.6791 204.11 96.9399V84.1299C204.11 84.0712 204.122 84.0132 204.146 83.9597C204.17 83.9062 204.206 83.8585 204.25 83.8199C204.348 83.7391 204.473 83.6965 204.6 83.6999H208.39C208.514 83.6962 208.635 83.739 208.73 83.8199C208.777 83.8566 208.815 83.9037 208.841 83.9574C208.867 84.0112 208.88 84.0702 208.88 84.1299V95.9999C208.88 97.7899 209.67 98.6799 211.26 98.6799C211.608 98.701 211.956 98.6426 212.279 98.5092C212.601 98.3758 212.889 98.1709 213.12 97.9099C213.579 97.3133 213.81 96.5719 213.77 95.8199V84.1299C213.756 84.0776 213.754 84.023 213.762 83.9696C213.771 83.9163 213.791 83.8653 213.82 83.8199Z" fill="#1E1E1D"/>
<path d="M230.84 86.5101C230.742 86.5925 230.618 86.6353 230.49 86.6301H227.94C227.81 86.6301 227.74 86.6901 227.74 86.8101V96.2001C227.706 96.5093 227.736 96.8222 227.827 97.1197C227.918 97.4171 228.069 97.6928 228.27 97.9301C228.729 98.2813 229.305 98.4424 229.88 98.3801H230.16C230.224 98.3773 230.288 98.3873 230.348 98.4097C230.408 98.432 230.463 98.4661 230.51 98.5101C230.557 98.5447 230.595 98.59 230.621 98.6421C230.647 98.6942 230.66 98.7518 230.66 98.8101V101.57C230.66 101.628 230.647 101.686 230.621 101.738C230.595 101.79 230.557 101.835 230.51 101.87C230.463 101.914 230.408 101.948 230.348 101.971C230.288 101.993 230.224 102.003 230.16 102H228.77C227.307 102.092 225.848 101.781 224.55 101.1C223.61 100.51 223.13 99.3801 223.13 97.7401V86.8101C223.13 86.6901 223.06 86.6301 222.93 86.6301H221.49C221.362 86.6353 221.238 86.5925 221.14 86.5101C221.093 86.4728 221.056 86.4257 221.03 86.3721C221.004 86.3184 220.99 86.2597 220.99 86.2001V84.1301C220.99 84.0704 221.003 84.0114 221.029 83.9576C221.055 83.9039 221.093 83.8568 221.14 83.8201C221.238 83.7377 221.362 83.6949 221.49 83.7001H222.93C223.06 83.7001 223.13 83.6401 223.13 83.5201V79.5801C223.13 79.5205 223.144 79.4617 223.17 79.4081C223.196 79.3545 223.233 79.3073 223.28 79.2701C223.378 79.1877 223.502 79.1449 223.63 79.1501H227.24C227.368 79.1449 227.492 79.1877 227.59 79.2701C227.637 79.3073 227.674 79.3545 227.7 79.4081C227.726 79.4617 227.74 79.5205 227.74 79.5801V83.5201C227.74 83.6401 227.81 83.7001 227.94 83.7001H230.49C230.618 83.6949 230.742 83.7377 230.84 83.8201C230.887 83.8568 230.925 83.9039 230.951 83.9576C230.977 84.0114 230.99 84.0704 230.99 84.1301V86.2001C230.99 86.2597 230.976 86.3184 230.95 86.3721C230.924 86.4257 230.887 86.4728 230.84 86.5101Z" fill="#1E1E1D"/>
<path d="M234.2 80.47C233.939 80.2429 233.73 79.9624 233.587 79.6476C233.443 79.3328 233.369 78.9909 233.369 78.645C233.369 78.2991 233.443 77.9573 233.587 77.6424C233.73 77.3276 233.939 77.0472 234.2 76.82C234.78 76.3228 235.527 76.0653 236.29 76.1C237.049 76.0678 237.793 76.3252 238.37 76.82C238.628 77.0469 238.833 77.3273 238.971 77.6417C239.109 77.956 239.177 78.2967 239.17 78.64C239.18 78.9872 239.112 79.3322 238.97 79.6491C238.828 79.966 238.616 80.2467 238.35 80.47C237.759 80.9364 237.028 81.19 236.275 81.19C235.522 81.19 234.791 80.9364 234.2 80.47ZM234.09 101.87C234.046 101.833 234.011 101.787 233.986 101.736C233.962 101.684 233.95 101.627 233.95 101.57V84.13C233.95 84.0714 233.962 84.0133 233.986 83.9598C234.01 83.9064 234.046 83.8587 234.09 83.82C234.188 83.7393 234.313 83.6967 234.44 83.7H238.23C238.357 83.6984 238.481 83.7408 238.58 83.82C238.624 83.8587 238.659 83.9064 238.684 83.9598C238.708 84.0133 238.72 84.0714 238.72 84.13V101.57C238.72 101.627 238.707 101.684 238.683 101.736C238.659 101.787 238.624 101.833 238.58 101.87C238.484 101.956 238.359 102.003 238.23 102H234.44C234.311 102.005 234.185 101.958 234.09 101.87Z" fill="#1E1E1D"/>
<path d="M244.25 100.71C243.614 100.203 243.106 99.5526 242.767 98.8126C242.428 98.0726 242.268 97.2633 242.3 96.45V89.25C242.277 88.4345 242.447 87.625 242.794 86.8868C243.141 86.1487 243.657 85.5024 244.3 85C245.894 83.9702 247.752 83.4224 249.65 83.4224C251.548 83.4224 253.406 83.9702 255 85C255.643 85.5024 256.159 86.1487 256.506 86.8868C256.854 87.625 257.023 88.4345 257 89.25V96.45C257.026 97.2675 256.858 98.0794 256.511 98.8197C256.163 99.5601 255.646 100.208 255 100.71C253.43 101.839 251.52 102.393 249.59 102.28C247.683 102.385 245.797 101.831 244.25 100.71ZM251.49 97.97C251.732 97.7286 251.921 97.4394 252.045 97.1209C252.169 96.8023 252.225 96.4615 252.21 96.12V89.53C252.222 89.1934 252.165 88.8579 252.041 88.5447C251.917 88.2314 251.729 87.9473 251.49 87.71C251.243 87.4695 250.951 87.2816 250.629 87.1578C250.308 87.034 249.964 86.977 249.62 86.99C249.28 86.9681 248.94 87.0187 248.621 87.1385C248.303 87.2583 248.013 87.4444 247.772 87.6847C247.531 87.9249 247.344 88.2137 247.223 88.5318C247.101 88.85 247.05 89.1902 247.07 89.53V96.12C247.05 96.4602 247.102 96.8009 247.223 97.1195C247.344 97.4381 247.531 97.7275 247.772 97.9685C248.013 98.2095 248.302 98.3966 248.621 98.5175C248.939 98.6385 249.28 98.6904 249.62 98.67C250.307 98.7019 250.979 98.4611 251.49 98V97.97Z" fill="#1E1E1D"/>
<path d="M273.45 84.9999C274.441 86.2516 274.933 87.8265 274.83 89.4199V101.6C274.831 101.658 274.817 101.716 274.791 101.768C274.765 101.82 274.727 101.865 274.68 101.9C274.635 101.943 274.582 101.977 274.523 101.999C274.465 102.021 274.403 102.032 274.34 102.03H270.55C270.421 102.034 270.295 101.988 270.2 101.9C270.155 101.865 270.118 101.819 270.094 101.767C270.069 101.715 270.058 101.657 270.06 101.6V89.7099C270.1 88.9904 269.88 88.2805 269.44 87.7099C269.218 87.4645 268.944 87.2723 268.637 87.1477C268.331 87.023 268 86.9691 267.67 86.9899C267.326 86.9707 266.981 87.0281 266.661 87.1577C266.341 87.2874 266.054 87.4862 265.82 87.7399C265.351 88.3281 265.116 89.0689 265.16 89.8199V101.57C265.163 101.627 265.151 101.685 265.127 101.737C265.102 101.789 265.066 101.835 265.02 101.87C264.925 101.958 264.799 102.004 264.67 102H260.89C260.826 102.003 260.762 101.993 260.702 101.97C260.642 101.948 260.587 101.914 260.54 101.87C260.493 101.835 260.455 101.79 260.429 101.738C260.403 101.686 260.39 101.628 260.39 101.57V84.1299C260.39 84.0702 260.403 84.0112 260.429 83.9574C260.455 83.9037 260.493 83.8566 260.54 83.8199C260.638 83.7375 260.763 83.6947 260.89 83.6999H264.67C264.797 83.6965 264.922 83.7391 265.02 83.8199C265.066 83.8571 265.102 83.9045 265.127 83.9584C265.151 84.0122 265.162 84.0709 265.16 84.1299V84.8399C265.159 84.8557 265.161 84.8716 265.165 84.8866C265.17 84.9017 265.178 84.9157 265.188 84.9278C265.198 84.9399 265.211 84.9498 265.225 84.957C265.239 84.9643 265.254 84.9686 265.27 84.9699C265.33 84.9699 265.41 84.9699 265.49 84.8399C266.009 84.3465 266.624 83.965 267.297 83.7191C267.969 83.4731 268.685 83.3679 269.4 83.4099C270.151 83.3612 270.902 83.4785 271.602 83.7533C272.302 84.0281 272.933 84.4537 273.45 84.9999Z" fill="#1E1E1D"/>
<path d="M279.72 100.85C279.11 100.451 278.612 99.9021 278.275 99.2561C277.937 98.6102 277.77 97.8886 277.79 97.1599V96.9099C277.79 96.8527 277.802 96.7962 277.827 96.7443C277.851 96.6925 277.886 96.6466 277.93 96.6099C278.026 96.5239 278.151 96.4775 278.28 96.4799H281.82C281.949 96.4754 282.075 96.5221 282.17 96.6099C282.216 96.6451 282.252 96.6907 282.276 96.7429C282.301 96.7951 282.312 96.8524 282.31 96.9099V97.0899C282.312 97.3719 282.382 97.6491 282.515 97.8981C282.647 98.1471 282.837 98.3604 283.07 98.5199C283.614 98.9191 284.276 99.1234 284.95 99.0999C285.557 99.1339 286.156 98.9415 286.63 98.5599C286.828 98.394 286.987 98.1857 287.094 97.9503C287.202 97.715 287.255 97.4585 287.25 97.1999C287.254 96.9724 287.208 96.7468 287.115 96.5393C287.021 96.3319 286.883 96.1476 286.71 95.9999C286.372 95.6891 285.983 95.4388 285.56 95.2599C285.15 95.0999 284.41 94.8199 283.34 94.4399C281.949 94.0116 280.648 93.3339 279.5 92.4399C278.984 91.9964 278.579 91.4377 278.318 90.8088C278.058 90.18 277.949 89.4987 278 88.8199C277.968 88.0666 278.119 87.3168 278.439 86.6343C278.76 85.9518 279.24 85.3568 279.84 84.8999C281.283 83.882 283.027 83.3816 284.79 83.4799C286.603 83.3967 288.391 83.9327 289.86 84.9999C290.468 85.4694 290.955 86.0774 291.28 86.7732C291.605 87.469 291.759 88.2324 291.73 88.9999C291.729 89.0584 291.716 89.1161 291.692 89.1694C291.668 89.2227 291.633 89.2705 291.59 89.3099C291.491 89.3891 291.367 89.4315 291.24 89.4299H287.78C287.653 89.4315 287.529 89.3891 287.43 89.3099C287.387 89.2705 287.352 89.2227 287.328 89.1694C287.304 89.1161 287.291 89.0584 287.29 88.9999V88.7899C287.293 88.5141 287.234 88.2411 287.116 87.9916C286.998 87.7421 286.825 87.5227 286.61 87.3499C286.128 86.9589 285.52 86.7563 284.9 86.7799C284.278 86.7497 283.669 86.9611 283.2 87.3699C282.996 87.5459 282.834 87.764 282.723 88.0093C282.613 88.2545 282.557 88.5209 282.56 88.7899C282.557 89.0036 282.6 89.2155 282.684 89.4118C282.769 89.6082 282.893 89.7847 283.05 89.9299C283.375 90.2382 283.75 90.4885 284.16 90.6699C284.57 90.8499 285.26 91.1099 286.22 91.4699C287.209 91.8123 288.178 92.213 289.12 92.6699C289.915 93.0813 290.617 93.6534 291.18 94.3499C291.782 95.1223 292.093 96.0814 292.06 97.0599C292.082 97.8042 291.917 98.5421 291.579 99.206C291.242 99.8699 290.744 100.439 290.13 100.86C288.543 101.761 286.75 102.235 284.925 102.235C283.1 102.235 281.307 101.761 279.72 100.86V100.85Z" fill="#1E1E1D"/>
</g>
<defs>
<linearGradient id="paint0_linear_4452_248" x1="-6.85005" y1="76.88" x2="119.49" y2="-1.03007" gradientUnits="userSpaceOnUse">
<stop stop-color="#E20079"/>
<stop offset="0.51" stop-color="#E32185"/>
<stop offset="0.7" stop-color="#E01E84"/>
<stop offset="0.86" stop-color="#D5157F"/>
<stop offset="1" stop-color="#C50778"/>
</linearGradient>
<linearGradient id="paint1_linear_4452_248" x1="0.709938" y1="89.5199" x2="127.05" y2="11.6098" gradientUnits="userSpaceOnUse">
<stop stop-color="#E20079"/>
<stop offset="0.51" stop-color="#E32185"/>
<stop offset="0.7" stop-color="#E01E84"/>
<stop offset="0.86" stop-color="#D5157F"/>
<stop offset="1" stop-color="#C50778"/>
</linearGradient>
<linearGradient id="paint2_linear_4452_248" x1="7.15978" y1="100.31" x2="133.5" y2="22.3998" gradientUnits="userSpaceOnUse">
<stop stop-color="#E20079"/>
<stop offset="0.51" stop-color="#E32185"/>
<stop offset="0.7" stop-color="#E01E84"/>
<stop offset="0.86" stop-color="#D5157F"/>
<stop offset="1" stop-color="#C50778"/>
</linearGradient>
<linearGradient id="paint3_linear_4452_248" x1="15.4501" y1="114.17" x2="141.79" y2="36.2599" gradientUnits="userSpaceOnUse">
<stop stop-color="#E20079"/>
<stop offset="0.51" stop-color="#E32185"/>
<stop offset="0.7" stop-color="#E01E84"/>
<stop offset="0.86" stop-color="#D5157F"/>
<stop offset="1" stop-color="#C50778"/>
</linearGradient>
<linearGradient id="paint4_linear_4452_248" x1="23.4401" y1="127.52" x2="149.78" y2="49.6101" gradientUnits="userSpaceOnUse">
<stop stop-color="#E20079"/>
<stop offset="0.51" stop-color="#E32185"/>
<stop offset="0.7" stop-color="#E01E84"/>
<stop offset="0.86" stop-color="#D5157F"/>
<stop offset="1" stop-color="#C50778"/>
</linearGradient>
<linearGradient id="paint5_linear_4452_248" x1="11.22" y1="106.17" x2="137.2" y2="28.4799" gradientUnits="userSpaceOnUse">
<stop stop-color="#E20079"/>
<stop offset="0.51" stop-color="#E32185"/>
<stop offset="0.7" stop-color="#E01E84"/>
<stop offset="0.86" stop-color="#D5157F"/>
<stop offset="1" stop-color="#C50778"/>
</linearGradient>
<clipPath id="clip0_4452_248">
<rect width="300" height="120" fill="white"/>
</clipPath>
</defs>
</svg>
